<svg width="512" height="512" viewBox="0 0 512 512" fill="none" xmlns="http://www.w3.org/2000/svg">
  <defs>
    <radialGradient id="ring" cx="0" cy="0" r="1" gradientUnits="userSpaceOnUse" gradientTransform="translate(256 256) rotate(90) scale(256)">
      <stop offset="0.78" stop-color="#FFFFFF"/>
      <stop offset="1" stop-color="#F4B7CF"/>
    </radialGradient>
    <linearGradient id="wingLeft" x1="120" y1="185" x2="256" y2="380" gradientUnits="userSpaceOnUse">
      <stop stop-color="#FFD43D"/>
      <stop offset="1" stop-color="#F7A81A"/>
    </linearGradient>
    <linearGradient id="wingRight" x1="392" y1="185" x2="256" y2="380" gradientUnits="userSpaceOnUse">
      <stop stop-color="#F8DF8F"/>
      <stop offset="1" stop-color="#F3B34F"/>
    </linearGradient>
    <linearGradient id="center" x1="256" y1="170" x2="256" y2="402" gradientUnits="userSpaceOnUse">
      <stop stop-color="#F5A300"/>
      <stop offset="1" stop-color="#E98900"/>
    </linearGradient>
    <filter id="soft" x="70" y="110" width="372" height="322" filterUnits="userSpaceOnUse" color-interpolation-filters="sRGB">
      <feGaussianBlur stdDeviation="2"/>
    </filter>
  </defs>

  <circle cx="256" cy="256" r="248" fill="url(#ring)"/>
  <circle cx="256" cy="256" r="214" fill="#F7F7F7"/>

  <g filter="url(#soft)">
    <path d="M256 204C222 162 145 166 121 214C97 262 127 331 198 378C226 397 243 407 256 414V204Z" fill="url(#wingLeft)"/>
    <path d="M256 204C290 162 367 166 391 214C415 262 385 331 314 378C286 397 269 407 256 414V204Z" fill="url(#wingRight)"/>
    <path d="M256 204C231 229 208 251 197 279C184 312 193 352 228 388C242 402 251 410 256 414C261 410 270 402 284 388C319 352 328 312 315 279C304 251 281 229 256 204Z" fill="url(#center)"/>
  </g>
</svg>
